Coordinates
version=1
nRows=17
nColumns=36
inDegrees=yes

Units are S.I. units (second, meters, Newtons, ...)
If the header above contains a line with 'inDegrees', this indicates whether rotational values are in degrees (yes) or radians (no).

endheader
time	pelvis_tilt	pelvis_list	pelvis_rotation	pelvis_tx	pelvis_ty	pelvis_tz	hip_flexion_r	hip_adduction_r	hip_rotation_r	knee_angle_r	knee_angle_r_beta	ankle_angle_r	subtalar_angle_r	mtp_angle_r	hip_flexion_l	hip_adduction_l	hip_rotation_l	knee_angle_l	knee_angle_l_beta	ankle_angle_l	subtalar_angle_l	mtp_angle_l	lumbar_extension	lumbar_bending	lumbar_rotation	arm_flex_r	arm_add_r	arm_rot_r	elbow_flex_r	pro_sup_r	arm_flex_l	arm_add_l	arm_rot_l	elbow_flex_l	pro_sup_l
      2.90833330	    -16.90932200	      1.65738973	      1.51909032	      0.18446154	      0.59132497	     -0.05476500	     92.64368740	     -1.03456446	      8.54552217	    112.13419577	      1.95711092	     30.61987970	      7.18195795	     -7.49999987	     94.95322567	     -0.06994213	      3.39651094	    113.80126667	      1.98620680	     28.96497224	     -8.80068402	     -7.49999987	    -58.77084115	      1.16099821	      1.93824180	     99.62404462	     -3.59314335	   -326.93643339	     29.09928886	     78.59057795	     84.61946760	     -8.76877062	     25.94228419	     30.43399893	     58.85176297
      2.91250000	    -16.82378586	      1.83802833	      1.55372267	      0.18593958	      0.58977207	     -0.05593553	     92.81264890	     -1.14542541	      8.98436204	    112.57271526	      1.96476453	     32.19494507	      5.35688532	     -7.49999987	     94.91534337	      0.03765206	      3.24194217	    114.16508307	      1.99255659	     29.14325831	     -8.66013273	     -7.49999987	    -58.66022824	      1.13043354	      1.87667919	     99.63159733	     -3.76439324	   -325.89045990	     29.16050343	     78.13531501	     84.59947206	     -8.55778810	     25.85685779	     30.78335028	     59.00785414
      2.91666670	    -16.81234760	      1.98718728	      1.61702224	      0.18880319	      0.58994847	     -0.05400154	     92.92243511	     -1.05456726	      9.19322242	    112.82035717	      1.96908670	     32.85927647	      2.64835562	     -7.49999987	     94.80922853	     -0.14127613	      3.07639417	    114.39742110	      1.99661165	     29.48740933	     -8.10021870	     -7.49999987	    -58.36191220	      0.97071531	      1.73705426	     99.32652600	     -3.60944154	   -326.11770236	     28.59489694	     78.01773938	     84.68675020	     -8.19218060	     25.85180590	     30.30727715	     59.49019830
      2.92083330	    -16.73234113	      2.17704488	      1.65234697	      0.18968197	      0.59120647	     -0.05673399	     92.77890897	     -1.10326141	      9.50144149	    112.65370364	      1.96617804	     33.41608818	      0.51385891	     -7.49999987	     94.44614577	     -0.12814900	      2.71104006	    114.34919991	      1.99577004	     29.68948999	     -7.84609044	     -7.49999987	    -58.15759339	      0.84213365	      1.56095093	     99.18705458	     -3.61970819	   -325.32026869	     28.27369508	     77.65037165	     84.71429251	     -7.89354741	     25.82489301	     30.17303761	     60.03054333
      2.92500000	    -16.77108419	      2.40061605	      1.77497116	      0.19215982	      0.59124730	     -0.05577539	     92.82365841	     -1.26014054	      9.86106505	    112.58109424	      1.96491077	     33.69746578	     -1.31459940	     -7.49999987	     94.16427148	     -0.17960655	      2.31579394	    114.25758205	      1.99417100	     29.96393529	     -7.39345357	     -7.49999987	    -57.80889465	      0.71551606	      1.40033296	     98.88413862	     -3.88340215	   -324.13207424	     28.23928416	     76.55928688	     84.56612833	     -7.63154448	     25.67142521	     30.48489183	     60.33009466
      2.92916670	    -16.68164638	      2.46412836	      1.95781459	      0.19386202	      0.59179783	     -0.05281299	     92.59650351	     -1.22973067	     10.04873833	    112.53961986	      1.96418691	     33.70091615	     -3.38978058	     -7.49999987	     93.66876252	     -0.40749724	      2.20805028	    114.01904199	      1.99000769	     30.31989418	     -6.70418889	     -7.49999987	    -57.59374578	      0.62183768	      1.19691155	     98.49204452	     -3.86679505	   -323.82314136	     28.07669340	     76.21184095	     84.62685996	     -7.37300489	     25.75319846	     30.32031949	     60.70277063
      2.93333330	    -16.81261160	      2.51767767	      2.09626888	      0.19383068	      0.59062407	     -0.05306455	     92.69605097	     -1.10158737	     10.21133094	    112.54112852	      1.96421324	     33.90275633	     -4.69380987	     -7.49999987	     93.68320045	     -0.48249932	      2.17148433	    113.98698559	      1.98944820	     30.52874616	     -6.13354445	     -7.49999987	    -57.05302328	      0.52393123	      1.06966385	     98.02019297	     -3.98507285	   -322.38449846	     27.90577446	     73.28596917	     84.36269397	     -7.07674835	     25.33063375	     30.38447435	     61.01193362
      2.93750000	    -16.67609530	      2.57596044	      2.43861169	      0.19733737	      0.59597279	     -0.05275640	     92.17919943	     -1.16948999	     10.47619926	    112.35224294	      1.96091656	     34.47000173	     -6.11545020	     -7.49999987	     92.94485308	     -0.46965403	      2.02779647	    113.49740736	      1.98090345	     30.42086291	     -5.95368020	     -7.49999987	    -56.92828778	      0.59956943	      0.90810294	     97.58730908	     -4.04506733	   -322.55511393	     27.78199323	     73.41731601	     84.34337903	     -6.81020406	     25.52193862	     30.35063580	     61.18387231
      2.94166670	    -16.66055397	      2.74904806	      2.66761837	      0.20090639	      0.59792866	     -0.05211453	     91.74104337	     -1.08449955	     10.67018076	    112.14557338	      1.95730950	     34.20203674	     -8.28809629	     -7.49999987	     92.19814239	     -0.56056477	      1.64701686	    113.01025723	      1.97240108	     30.56055775	     -5.74576657	     -7.49999987	    -56.81763584	      0.51560959	      0.73734122	     97.28577238	     -4.27321638	   -322.10242820	     27.94511085	     73.13031389	     84.36003079	     -6.58677840	     25.68943864	     30.65461941	     61.39659740
      2.94583330	    -16.55818184	      2.77402736	      2.73295159	      0.20448244	      0.59880908	     -0.05145386	     91.18483381	     -0.82023514	     10.74446628	    111.99421343	      1.95466777	     34.03116555	     -9.86489928	     -7.49999987	     91.60126841	     -0.88395051	      1.56652805	    112.93182472	      1.97103217	     31.15722069	     -4.93548479	     -7.49999987	    -56.57825939	      0.36202567	      0.72465340	     96.68105018	     -4.14174826	   -322.72101461	     27.43653606	     73.29954108	     84.45371267	     -6.34266486	     26.32213594	     29.90425523	     62.10264692
      2.95000000	    -16.38489435	      2.81708655	      2.95997301	      0.20653648	      0.60135894	     -0.05092648	     90.51696640	     -0.79308386	     10.94381576	    111.94184617	      1.95375379	     34.42382563	    -10.88871258	     -7.49999987	     90.88852629	     -1.01177180	      1.37884984	    112.66995852	      1.96646174	     31.23745028	     -4.57531007	     -7.49999987	    -56.46802180	      0.19589975	      0.66377212	     95.41065929	     -4.22281907	   -327.12415685	     28.32625857	     82.01455319	     84.47350372	     -5.94527499	     26.48358335	     29.59506662	     67.34574089
      2.95416670	    -16.04904071	      2.83829369	      3.16360806	      0.20769158	      0.60234172	     -0.05055365	     89.87869708	     -0.73672193	     11.06253264	    112.00054786	      1.95477832	     34.52773274	    -11.96655137	     -7.49999987	     90.28222166	     -0.98162708	      1.35363727	    112.63981754	      1.96593568	     31.50887735	     -4.10034873	     -7.49999987	    -56.45085485	      0.17936192	      0.58007495	     94.93986649	     -4.37031118	   -326.30224571	     28.13417955	     79.29676472	     84.36029788	     -5.77456217	     27.10940193	     29.58729944	     67.17836050
      2.95833330	    -15.75057403	      2.86236089	      3.16173218	      0.20859690	      0.60429801	     -0.05242078	     89.34414220	     -0.62987225	     11.22620844	    111.97817106	      1.95438778	     34.42256337	    -12.82128334	     -7.49999987	     89.80030770	     -0.90721083	      1.28708294	    112.65332662	      1.96617146	     31.52288899	     -4.16072018	     -7.49999987	    -56.40843613	      0.12268962	      0.62503870	     94.53044767	     -4.51476058	   -325.68216921	     27.97544978	     78.97821981	     84.06055977	     -5.58529985	     27.10332344	     29.82056494	     67.06973474
      2.96250000	    -15.47018983	      2.82521123	      3.16632316	      0.21163855	      0.60572903	     -0.05224555	     88.74768020	     -0.45725170	     11.36421339	    111.93998787	      1.95372135	     34.44972744	    -13.18003953	     -7.49999987	     89.35285353	     -0.80067627	      1.35962229	    112.71675018	      1.96727841	     31.46578217	     -4.18978335	     -7.49999987	    -56.31085343	      0.16768373	      0.72362713	     94.29698266	     -4.61297443	   -324.31779386	     27.44020962	     77.91001143	     83.72613785	     -5.37785722	     27.09252608	     29.93432841	     66.81088215
      2.96666670	    -15.20502446	      2.76120668	      3.24940283	      0.21322639	      0.60819081	     -0.05159410	     88.08359418	     -0.38005327	     11.44999964	    111.78339720	      1.95098833	     34.70084452	    -13.57004975	     -7.49999987	     88.83868277	     -0.62555889	      1.45401901	    112.72605618	      1.96744083	     31.52534816	     -4.39270836	     -7.49999987	    -56.25573880	      0.30076867	      0.69548325	     93.79294583	     -4.93399034	   -323.22395302	     28.27067897	     77.15697493	     83.24164650	     -5.52793155	     27.03411013	     30.86959462	     66.51061357
      2.97083330	    -14.89956747	      2.73454779	      3.13581006	      0.21454118	      0.60905200	     -0.05382006	     87.63777162	     -0.22958241	     11.53922513	    111.74988422	      1.95040342	     34.69244908	    -13.79579061	     -7.49999987	     88.31236690	     -0.44614542	      1.52993993	    112.73117656	      1.96753020	     31.63009906	     -4.51382478	     -7.49999987	    -56.18604891	      0.32199371	      0.73581438	     93.38492226	     -5.21246186	   -322.11221550	     28.79430404	     76.53522971	     82.79872810	     -5.62262103	     26.98470163	     31.56828966	     66.27012524
      2.97500000	    -14.69536816	      2.75766475	      3.22082417	      0.21768917	      0.61063267	     -0.05309150	     87.25576196	     -0.18704666	     11.68829324	    111.86833872	      1.95247084	     34.24314191	    -14.36178530	     -7.49999987	     87.77373128	     -0.33512890	      1.58925960	    112.63268354	      1.96581117	     32.20277157	     -4.08930283	     -7.49999987	    -55.74946439	      0.24764105	      0.80019894	     92.65708976	     -4.71893672	   -324.31581641	     27.04355125	     77.02884252	     82.95446891	     -5.24523974	     28.95544390	     29.93922342	     67.76006207
